<mxfile host="app.diagrams.net" modified="2021-11-10T11:02:23.773Z" agent="5.0 (Windows)" etag="H-waNUzzMjw_mfyk5uaW" version="15.7.1" type="github">
  <diagram id="C5RBs43oDa-KdzZeNtuy" name="Page-1">
    <mxGraphModel dx="1038" dy="536" grid="1" gridSize="8" guides="1" tooltips="1" connect="1" arrows="0" fold="1" page="1" pageScale="1" pageWidth="827" pageHeight="1169" background="#F4F1DE" math="0" shadow="0">
      <root>
        <mxCell id="WIyWlLk6GJQsqaUBKTNV-0" />
        <mxCell id="WIyWlLk6GJQsqaUBKTNV-1" parent="WIyWlLk6GJQsqaUBKTNV-0" />
        <mxCell id="zkfFHV4jXpPFQw0GAbJ--26" value="" style="endArrow=none;shadow=0;strokeWidth=1;endFill=0;elbow=vertical;sketch=1;exitX=1.01;exitY=0.154;exitDx=0;exitDy=0;exitPerimeter=0;entryX=0;entryY=0.5;entryDx=0;entryDy=0;edgeStyle=orthogonalEdgeStyle;labelBackgroundColor=#F4F1DE;strokeColor=#E07A5F;fontColor=#393C56;" parent="WIyWlLk6GJQsqaUBKTNV-1" source="CEnYFHFPPJTpgv1vPKm3-8" target="CEnYFHFPPJTpgv1vPKm3-12" edge="1">
          <mxGeometry x="0.5" y="41" relative="1" as="geometry">
            <mxPoint x="250" y="200" as="sourcePoint" />
            <mxPoint x="480" y="200" as="targetPoint" />
            <mxPoint x="-40" y="32" as="offset" />
          </mxGeometry>
        </mxCell>
        <mxCell id="CEnYFHFPPJTpgv1vPKm3-1" value="Contrat" style="swimlane;fontStyle=0;childLayout=stackLayout;horizontal=1;startSize=26;horizontalStack=0;resizeParent=1;resizeParentMax=0;resizeLast=0;collapsible=1;marginBottom=0;glass=0;labelBorderColor=none;rounded=1;sketch=1;whiteSpace=wrap;fillColor=#F2CC8F;strokeColor=#E07A5F;fontColor=#393C56;" vertex="1" parent="WIyWlLk6GJQsqaUBKTNV-1">
          <mxGeometry x="314" y="94" width="200" height="182" as="geometry" />
        </mxCell>
        <mxCell id="CEnYFHFPPJTpgv1vPKm3-2" value="Date de début" style="text;strokeColor=none;fillColor=none;align=left;verticalAlign=top;spacingLeft=4;spacingRight=4;overflow=hidden;rotatable=0;points=[[0,0.5],[1,0.5]];portConstraint=eastwest;glass=0;labelBorderColor=none;rounded=1;sketch=1;whiteSpace=wrap;fontColor=#393C56;" vertex="1" parent="CEnYFHFPPJTpgv1vPKm3-1">
          <mxGeometry y="26" width="200" height="26" as="geometry" />
        </mxCell>
        <mxCell id="CEnYFHFPPJTpgv1vPKm3-3" value="Durée" style="text;strokeColor=none;fillColor=none;align=left;verticalAlign=top;spacingLeft=4;spacingRight=4;overflow=hidden;rotatable=0;points=[[0,0.5],[1,0.5]];portConstraint=eastwest;glass=0;labelBorderColor=none;rounded=1;sketch=1;whiteSpace=wrap;fontColor=#393C56;" vertex="1" parent="CEnYFHFPPJTpgv1vPKm3-1">
          <mxGeometry y="52" width="200" height="26" as="geometry" />
        </mxCell>
        <mxCell id="CEnYFHFPPJTpgv1vPKm3-4" value="Fréquence de sessions" style="text;strokeColor=none;fillColor=none;align=left;verticalAlign=top;spacingLeft=4;spacingRight=4;overflow=hidden;rotatable=0;points=[[0,0.5],[1,0.5]];portConstraint=eastwest;glass=0;labelBorderColor=none;rounded=1;sketch=1;whiteSpace=wrap;fontColor=#393C56;" vertex="1" parent="CEnYFHFPPJTpgv1vPKm3-1">
          <mxGeometry y="78" width="200" height="26" as="geometry" />
        </mxCell>
        <mxCell id="CEnYFHFPPJTpgv1vPKm3-12" value="Mentor" style="text;strokeColor=none;fillColor=none;align=left;verticalAlign=top;spacingLeft=4;spacingRight=4;overflow=hidden;rotatable=0;points=[[0,0.5],[1,0.5]];portConstraint=eastwest;glass=0;labelBorderColor=none;rounded=1;sketch=1;whiteSpace=wrap;fontColor=#393C56;" vertex="1" parent="CEnYFHFPPJTpgv1vPKm3-1">
          <mxGeometry y="104" width="200" height="26" as="geometry" />
        </mxCell>
        <mxCell id="CEnYFHFPPJTpgv1vPKm3-13" value="Mentoré" style="text;strokeColor=none;fillColor=none;align=left;verticalAlign=top;spacingLeft=4;spacingRight=4;overflow=hidden;rotatable=0;points=[[0,0.5],[1,0.5]];portConstraint=eastwest;glass=0;labelBorderColor=none;rounded=1;sketch=1;whiteSpace=wrap;fontColor=#393C56;" vertex="1" parent="CEnYFHFPPJTpgv1vPKm3-1">
          <mxGeometry y="130" width="200" height="26" as="geometry" />
        </mxCell>
        <mxCell id="CEnYFHFPPJTpgv1vPKm3-15" value="Progression" style="text;strokeColor=none;fillColor=none;align=left;verticalAlign=top;spacingLeft=4;spacingRight=4;overflow=hidden;rotatable=0;points=[[0,0.5],[1,0.5]];portConstraint=eastwest;glass=0;labelBorderColor=none;rounded=1;sketch=1;whiteSpace=wrap;fontColor=#393C56;" vertex="1" parent="CEnYFHFPPJTpgv1vPKm3-1">
          <mxGeometry y="156" width="200" height="26" as="geometry" />
        </mxCell>
        <mxCell id="CEnYFHFPPJTpgv1vPKm3-8" value="Utilisateur" style="swimlane;fontStyle=0;childLayout=stackLayout;horizontal=1;startSize=26;horizontalStack=0;resizeParent=1;resizeParentMax=0;resizeLast=0;collapsible=1;marginBottom=0;glass=0;labelBorderColor=none;rounded=1;sketch=1;whiteSpace=wrap;fillColor=#F2CC8F;strokeColor=#E07A5F;fontColor=#393C56;" vertex="1" parent="WIyWlLk6GJQsqaUBKTNV-1">
          <mxGeometry x="20" y="120" width="200" height="130" as="geometry" />
        </mxCell>
        <mxCell id="CEnYFHFPPJTpgv1vPKm3-9" value="Nom, prénom" style="text;strokeColor=none;fillColor=none;align=left;verticalAlign=top;spacingLeft=4;spacingRight=4;overflow=hidden;rotatable=0;points=[[0,0.5],[1,0.5]];portConstraint=eastwest;glass=0;labelBorderColor=none;rounded=1;sketch=1;whiteSpace=wrap;fontColor=#393C56;" vertex="1" parent="CEnYFHFPPJTpgv1vPKm3-8">
          <mxGeometry y="26" width="200" height="26" as="geometry" />
        </mxCell>
        <mxCell id="CEnYFHFPPJTpgv1vPKm3-10" value="mail" style="text;strokeColor=none;fillColor=none;align=left;verticalAlign=top;spacingLeft=4;spacingRight=4;overflow=hidden;rotatable=0;points=[[0,0.5],[1,0.5]];portConstraint=eastwest;glass=0;labelBorderColor=none;rounded=1;sketch=1;whiteSpace=wrap;fontColor=#393C56;" vertex="1" parent="CEnYFHFPPJTpgv1vPKm3-8">
          <mxGeometry y="52" width="200" height="26" as="geometry" />
        </mxCell>
        <mxCell id="CEnYFHFPPJTpgv1vPKm3-11" value="Compètence" style="text;strokeColor=none;fillColor=none;align=left;verticalAlign=top;spacingLeft=4;spacingRight=4;overflow=hidden;rotatable=0;points=[[0,0.5],[1,0.5]];portConstraint=eastwest;glass=0;labelBorderColor=none;rounded=1;sketch=1;whiteSpace=wrap;fontColor=#393C56;" vertex="1" parent="CEnYFHFPPJTpgv1vPKm3-8">
          <mxGeometry y="78" width="200" height="26" as="geometry" />
        </mxCell>
        <mxCell id="CEnYFHFPPJTpgv1vPKm3-23" value="Objectif" style="text;strokeColor=none;fillColor=none;align=left;verticalAlign=top;spacingLeft=4;spacingRight=4;overflow=hidden;rotatable=0;points=[[0,0.5],[1,0.5]];portConstraint=eastwest;glass=0;labelBorderColor=none;rounded=1;sketch=1;whiteSpace=wrap;fontColor=#393C56;" vertex="1" parent="CEnYFHFPPJTpgv1vPKm3-8">
          <mxGeometry y="104" width="200" height="26" as="geometry" />
        </mxCell>
        <mxCell id="CEnYFHFPPJTpgv1vPKm3-14" style="edgeStyle=orthogonalEdgeStyle;rounded=1;sketch=0;orthogonalLoop=1;jettySize=auto;html=1;exitX=0;exitY=0.5;exitDx=0;exitDy=0;entryX=1.01;entryY=0.144;entryDx=0;entryDy=0;entryPerimeter=0;endArrow=none;endFill=0;labelBackgroundColor=#F4F1DE;strokeColor=#E07A5F;fontColor=#393C56;" edge="1" parent="WIyWlLk6GJQsqaUBKTNV-1" source="CEnYFHFPPJTpgv1vPKm3-13" target="CEnYFHFPPJTpgv1vPKm3-8">
          <mxGeometry relative="1" as="geometry" />
        </mxCell>
        <mxCell id="CEnYFHFPPJTpgv1vPKm3-24" style="edgeStyle=orthogonalEdgeStyle;rounded=1;sketch=0;orthogonalLoop=1;jettySize=auto;html=1;exitX=0.5;exitY=0;exitDx=0;exitDy=0;endArrow=none;endFill=0;entryX=1;entryY=0.055;entryDx=0;entryDy=0;entryPerimeter=0;labelBackgroundColor=#F4F1DE;strokeColor=#E07A5F;fontColor=#393C56;" edge="1" parent="WIyWlLk6GJQsqaUBKTNV-1" source="CEnYFHFPPJTpgv1vPKm3-16" target="CEnYFHFPPJTpgv1vPKm3-1">
          <mxGeometry relative="1" as="geometry">
            <mxPoint x="470" y="200" as="targetPoint" />
          </mxGeometry>
        </mxCell>
        <mxCell id="CEnYFHFPPJTpgv1vPKm3-16" value="Session" style="swimlane;fontStyle=0;childLayout=stackLayout;horizontal=1;startSize=26;horizontalStack=0;resizeParent=1;resizeParentMax=0;resizeLast=0;collapsible=1;marginBottom=0;glass=0;labelBorderColor=none;rounded=1;sketch=1;whiteSpace=wrap;fillColor=#F2CC8F;strokeColor=#E07A5F;fontColor=#393C56;" vertex="1" parent="WIyWlLk6GJQsqaUBKTNV-1">
          <mxGeometry x="600" y="146" width="200" height="104" as="geometry" />
        </mxCell>
        <mxCell id="CEnYFHFPPJTpgv1vPKm3-17" value="Date, horaire" style="text;strokeColor=none;fillColor=none;align=left;verticalAlign=top;spacingLeft=4;spacingRight=4;overflow=hidden;rotatable=0;points=[[0,0.5],[1,0.5]];portConstraint=eastwest;glass=0;labelBorderColor=none;rounded=1;sketch=1;whiteSpace=wrap;fontColor=#393C56;" vertex="1" parent="CEnYFHFPPJTpgv1vPKm3-16">
          <mxGeometry y="26" width="200" height="26" as="geometry" />
        </mxCell>
        <mxCell id="CEnYFHFPPJTpgv1vPKm3-18" value="Projet/Sujet à aborder" style="text;strokeColor=none;fillColor=none;align=left;verticalAlign=top;spacingLeft=4;spacingRight=4;overflow=hidden;rotatable=0;points=[[0,0.5],[1,0.5]];portConstraint=eastwest;glass=0;labelBorderColor=none;rounded=1;sketch=1;whiteSpace=wrap;fontColor=#393C56;" vertex="1" parent="CEnYFHFPPJTpgv1vPKm3-16">
          <mxGeometry y="52" width="200" height="26" as="geometry" />
        </mxCell>
        <mxCell id="CEnYFHFPPJTpgv1vPKm3-19" value="Notes" style="text;strokeColor=none;fillColor=none;align=left;verticalAlign=top;spacingLeft=4;spacingRight=4;overflow=hidden;rotatable=0;points=[[0,0.5],[1,0.5]];portConstraint=eastwest;glass=0;labelBorderColor=none;rounded=1;sketch=1;whiteSpace=wrap;fontColor=#393C56;" vertex="1" parent="CEnYFHFPPJTpgv1vPKm3-16">
          <mxGeometry y="78" width="200" height="26" as="geometry" />
        </mxCell>
      </root>
    </mxGraphModel>
  </diagram>
</mxfile>
